<svg xmlns="http://www.w3.org/2000/svg" width="32" height="32" shape-rendering="crispEdges"><rect width="32" height="32" fill="#1b1814"/><rect x="12" y="21" width="1" height="1" fill="#17130f"/><rect x="0" y="30" width="2" height="1" fill="#241f19"/><rect x="5" y="7" width="2" height="1" fill="#1e1a15"/><rect x="12" y="30" width="1" height="1" fill="#17130f"/><rect x="21" y="5" width="1" height="1" fill="#1e1a15"/><rect x="25" y="5" width="1" height="1" fill="#17130f"/><rect x="8" y="1" width="2" height="1" fill="#17130f"/><rect x="29" y="9" width="2" height="1" fill="#1e1a15"/><rect x="22" y="9" width="1" height="1" fill="#17130f"/><rect x="0" y="6" width="1" height="1" fill="#17130f"/><rect x="12" y="13" width="1" height="1" fill="#211c17"/><rect x="13" y="18" width="2" height="1" fill="#17130f"/><rect x="20" y="16" width="1" height="1" fill="#1e1a15"/><rect x="3" y="22" width="2" height="1" fill="#1e1a15"/><rect x="26" y="8" width="2" height="1" fill="#17130f"/><rect x="1" y="28" width="2" height="1" fill="#17130f"/><rect x="0" y="9" width="1" height="1" fill="#17130f"/><rect x="30" y="7" width="1" height="1" fill="#211c17"/><rect x="30" y="6" width="1" height="1" fill="#211c17"/><rect x="12" y="17" width="1" height="1" fill="#211c17"/><rect x="28" y="1" width="1" height="1" fill="#211c17"/><rect x="20" y="12" width="1" height="1" fill="#241f19"/><rect x="30" y="15" width="2" height="1" fill="#241f19"/><rect x="12" y="28" width="1" height="1" fill="#17130f"/><rect x="7" y="25" width="1" height="1" fill="#1e1a15"/><rect x="4" y="15" width="1" height="1" fill="#1e1a15"/><rect x="13" y="19" width="1" height="1" fill="#211c17"/><rect x="23" y="9" width="1" height="1" fill="#241f19"/><rect x="29" y="14" width="1" height="1" fill="#211c17"/><rect x="31" y="10" width="1" height="1" fill="#17130f"/><rect x="27" y="25" width="1" height="1" fill="#241f19"/><rect x="12" y="22" width="1" height="1" fill="#241f19"/><rect x="23" y="1" width="2" height="1" fill="#241f19"/><rect x="29" y="28" width="1" height="1" fill="#211c17"/><rect x="21" y="18" width="1" height="1" fill="#211c17"/><rect x="14" y="6" width="1" height="1" fill="#211c17"/><rect x="17" y="2" width="1" height="1" fill="#17130f"/><rect x="8" y="27" width="1" height="1" fill="#241f19"/><rect x="9" y="31" width="1" height="1" fill="#241f19"/><rect x="17" y="3" width="1" height="1" fill="#17130f"/><rect x="4" y="17" width="2" height="1" fill="#211c17"/><rect x="5" y="16" width="2" height="1" fill="#211c17"/><rect x="14" y="4" width="1" height="1" fill="#241f19"/><rect x="29" y="0" width="2" height="1" fill="#241f19"/><rect x="26" y="17" width="1" height="1" fill="#17130f"/><rect x="15" y="7" width="1" height="1" fill="#17130f"/><rect x="3" y="11" width="1" height="1" fill="#17130f"/><rect x="19" y="13" width="1" height="1" fill="#241f19"/><rect x="11" y="17" width="1" height="1" fill="#241f19"/><rect x="16" y="2" width="1" height="1" fill="#211c17"/><rect x="12" y="30" width="1" height="1" fill="#17130f"/><rect x="6" y="27" width="2" height="1" fill="#1e1a15"/><rect x="25" y="19" width="1" height="1" fill="#17130f"/><rect x="21" y="12" width="1" height="1" fill="#17130f"/><rect x="22" y="3" width="1" height="1" fill="#17130f"/><rect x="4" y="16" width="1" height="1" fill="#1e1a15"/><rect x="3" y="5" width="2" height="1" fill="#1e1a15"/><rect x="18" y="15" width="1" height="1" fill="#241f19"/><rect x="29" y="11" width="1" height="1" fill="#17130f"/><rect x="28" y="0" width="1" height="1" fill="#241f19"/></svg>