<svg xmlns="http://www.w3.org/2000/svg" width="64" height="48" viewBox="0 0 64 48" shape-rendering="crispEdges"><rect width="64" height="48" fill="#0b090c"/><rect x="-31" y="1" width="30" height="14" fill="#19161a"/><rect x="-31" y="1" width="30" height="1" fill="#2e282c"/><rect x="-31" y="14" width="30" height="1" fill="#120f12"/><rect x="-26" y="9" width="1" height="1" fill="#14111a"/><rect x="-4" y="11" width="2" height="1" fill="#14111a"/><rect x="-12" y="3" width="1" height="1" fill="#2a2428"/><rect x="-28" y="9" width="1" height="1" fill="#26202a"/><rect x="-23" y="4" width="1" height="1" fill="#26202a"/><rect x="1" y="1" width="30" height="14" fill="#1b181d"/><rect x="1" y="1" width="30" height="1" fill="#2e282c"/><rect x="1" y="14" width="30" height="1" fill="#120f12"/><rect x="5" y="6" width="2" height="1" fill="#14111a"/><rect x="3" y="6" width="1" height="1" fill="#14111a"/><rect x="11" y="9" width="1" height="1" fill="#2a2428"/><rect x="20" y="7" width="1" height="1" fill="#2a2428"/><rect x="20" y="12" width="2" height="1" fill="#2a2428"/><rect x="33" y="1" width="30" height="14" fill="#1d1a1e"/><rect x="33" y="1" width="30" height="1" fill="#2e282c"/><rect x="33" y="14" width="30" height="1" fill="#120f12"/><rect x="51" y="4" width="1" height="1" fill="#14111a"/><rect x="49" y="11" width="2" height="1" fill="#26202a"/><rect x="48" y="12" width="2" height="1" fill="#26202a"/><rect x="43" y="6" width="1" height="1" fill="#2a2428"/><rect x="36" y="12" width="2" height="1" fill="#161317"/><rect x="65" y="1" width="30" height="14" fill="#19161a"/><rect x="65" y="1" width="30" height="1" fill="#2e282c"/><rect x="65" y="14" width="30" height="1" fill="#120f12"/><rect x="89" y="10" width="1" height="1" fill="#161317"/><rect x="69" y="11" width="1" height="1" fill="#26202a"/><rect x="90" y="8" width="2" height="1" fill="#2a2428"/><rect x="79" y="3" width="2" height="1" fill="#14111a"/><rect x="76" y="8" width="2" height="1" fill="#26202a"/><rect x="-15" y="17" width="30" height="14" fill="#1d1a1e"/><rect x="-15" y="17" width="30" height="1" fill="#2e282c"/><rect x="-15" y="30" width="30" height="1" fill="#120f12"/><rect x="12" y="20" width="2" height="1" fill="#161317"/><rect x="8" y="20" width="2" height="1" fill="#14111a"/><rect x="6" y="28" width="2" height="1" fill="#26202a"/><rect x="8" y="25" width="1" height="1" fill="#161317"/><rect x="0" y="24" width="1" height="1" fill="#2a2428"/><rect x="17" y="17" width="30" height="14" fill="#241f22"/><rect x="17" y="17" width="30" height="1" fill="#2e282c"/><rect x="17" y="30" width="30" height="1" fill="#120f12"/><rect x="19" y="22" width="1" height="1" fill="#161317"/><rect x="41" y="22" width="2" height="1" fill="#26202a"/><rect x="33" y="20" width="2" height="1" fill="#2a2428"/><rect x="30" y="27" width="1" height="1" fill="#161317"/><rect x="44" y="25" width="2" height="1" fill="#161317"/><rect x="49" y="17" width="30" height="14" fill="#19161a"/><rect x="49" y="17" width="30" height="1" fill="#2e282c"/><rect x="49" y="30" width="30" height="1" fill="#120f12"/><rect x="71" y="25" width="1" height="1" fill="#2a2428"/><rect x="52" y="21" width="1" height="1" fill="#2a2428"/><rect x="71" y="22" width="2" height="1" fill="#14111a"/><rect x="76" y="28" width="2" height="1" fill="#2a2428"/><rect x="59" y="19" width="2" height="1" fill="#2a2428"/><rect x="81" y="17" width="30" height="14" fill="#1b181d"/><rect x="81" y="17" width="30" height="1" fill="#2e282c"/><rect x="81" y="30" width="30" height="1" fill="#120f12"/><rect x="93" y="28" width="1" height="1" fill="#161317"/><rect x="104" y="27" width="2" height="1" fill="#14111a"/><rect x="106" y="27" width="2" height="1" fill="#26202a"/><rect x="94" y="25" width="2" height="1" fill="#14111a"/><rect x="102" y="25" width="1" height="1" fill="#14111a"/><rect x="-31" y="33" width="30" height="14" fill="#1d1a1e"/><rect x="-31" y="33" width="30" height="1" fill="#2e282c"/><rect x="-31" y="46" width="30" height="1" fill="#120f12"/><rect x="-24" y="42" width="1" height="1" fill="#2a2428"/><rect x="-20" y="44" width="1" height="1" fill="#14111a"/><rect x="-30" y="44" width="1" height="1" fill="#2a2428"/><rect x="-19" y="44" width="1" height="1" fill="#14111a"/><rect x="-24" y="44" width="1" height="1" fill="#26202a"/><rect x="1" y="33" width="30" height="14" fill="#19161a"/><rect x="1" y="33" width="30" height="1" fill="#2e282c"/><rect x="1" y="46" width="30" height="1" fill="#120f12"/><rect x="13" y="44" width="2" height="1" fill="#161317"/><rect x="5" y="36" width="2" height="1" fill="#26202a"/><rect x="17" y="42" width="1" height="1" fill="#161317"/><rect x="6" y="36" width="2" height="1" fill="#161317"/><rect x="17" y="37" width="1" height="1" fill="#14111a"/><rect x="33" y="33" width="30" height="14" fill="#1b181d"/><rect x="33" y="33" width="30" height="1" fill="#2e282c"/><rect x="33" y="46" width="30" height="1" fill="#120f12"/><rect x="45" y="37" width="2" height="1" fill="#14111a"/><rect x="54" y="36" width="2" height="1" fill="#161317"/><rect x="39" y="40" width="2" height="1" fill="#2a2428"/><rect x="54" y="38" width="1" height="1" fill="#2a2428"/><rect x="60" y="41" width="1" height="1" fill="#2a2428"/><rect x="65" y="33" width="30" height="14" fill="#1b181d"/><rect x="65" y="33" width="30" height="1" fill="#2e282c"/><rect x="65" y="46" width="30" height="1" fill="#120f12"/><rect x="81" y="40" width="1" height="1" fill="#14111a"/><rect x="91" y="39" width="2" height="1" fill="#26202a"/><rect x="72" y="44" width="2" height="1" fill="#161317"/><rect x="91" y="40" width="1" height="1" fill="#161317"/><rect x="73" y="36" width="2" height="1" fill="#2a2428"/></svg>